#!OML:ASF F:\VICON\USERDATA\INSTALL\Justin_Nancy\Justin_Nancy.ASF
:FULLY-SPECIFIED
:DEGREES
324
root -7.70557 17.6967 7.19485 -30.4219 76.6563 -35.2077
lowerback 7.02946 -0.083194 5.67051
upperback 0.515035 0.61486 4.56393
thorax -3.41242 0.30123 1.48714
lowerneck -15.6593 -3.47808 -8.62017
upperneck 23.5732 -3.17435 3.35238
head 10.3373 -1.74334 2.22527
rclavicle 7.25564e-015 1.59028e-015
rhumerus -33.2449 -4.50286 -78.6945
rradius 38.038
rwrist -0.130457
rhand -15.9365 9.89678
rfingers 7.12502
rthumb 10.2614 -19.8329
lclavicle 7.25564e-015 1.59028e-015
lhumerus -32.4333 9.2467 82.604
lradius 31.1575
lwrist 0.0869945
lhand -17.5626 25.6309
lfingers 7.12502
lthumb 8.69243 55.432
rfemur 6.05966 2.5386 29.3776
rtibia 14.5618
rfoot -9.68043 -0.560216
rtoes -0.10969
lfemur -32.0794 2.4528 -20.1637
ltibia 26.9122
lfoot -15.9121 7.93009
ltoes 0.888818
325
root -7.63265 17.6895 7.26024 -31.2408 76.6666 -36.468
lowerback 6.58123 0.162832 5.76799
upperback 0.419918 0.913531 4.55525
thorax -3.25357 0.449404 1.39639
lowerneck -15.6531 -3.52882 -8.50854
upperneck 23.5658 -3.3101 3.48593
head 10.3413 -1.77929 2.23587
rclavicle -1.69961e-014 2.38542e-014
rhumerus -33.2173 -5.1994 -78.7348
rradius 38.0447
rwrist 0.0706655
rhand -16.1351 9.76992
rfingers 7.12502
rthumb 10.0698 -19.9692
lclavicle -1.69961e-014 2.38542e-014
lhumerus -32.8076 8.89207 82.2937
lradius 31.1448
lwrist 0.334533
lhand -17.0896 25.558
lfingers 7.12502
lthumb 9.14891 55.3395
rfemur 6.17394 2.87528 29.8484
rtibia 14.0803
rfoot -9.37885 -0.542033
rtoes -1.09175
lfemur -32.4282 1.92696 -19.8021
ltibia 25.9262
lfoot -15.4486 9.40327
ltoes -1.45736
326
root -7.56956 17.6778 7.26588 -26.3805 78.3741 -31.8925
lowerback 6.23826 0.128348 4.60077
upperback 0.331062 0.715562 4.02583
thorax -3.16006 0.35381 1.51597
lowerneck -15.6781 -3.60117 -8.6201
upperneck 23.3634 -3.36493 3.42316
head 10.2787 -1.8206 2.2217
rclavicle -3.67752e-015 -1.35174e-014
rhumerus -32.8998 -5.85576 -78.5308
rradius 37.8463
rwrist 0.62426
rhand -16.2686 9.90396
rfingers 7.12502
rthumb 9.94101 -19.8413
lclavicle -3.67752e-015 -1.35174e-014
lhumerus -32.9601 9.12332 82.2262
lradius 30.9733
lwrist 0.150338
lhand -17.1284 25.9672
lfingers 7.12502
lthumb 9.11144 55.7503
rfemur 6.0723 1.19406 27.7502
rtibia 13.977
rfoot -9.34453 0.609596
rtoes -2.86857
lfemur -32.6168 1.31622 -22.0906
ltibia 24.8026
lfoot -15.0117 9.76843
ltoes -2.91569
327
root -7.50905 17.657 7.34767 -28.6716 79.3004 -33.5638
lowerback 6.85258 0.0225122 3.9049
upperback 0.576627 0.563967 4.17438
thorax -3.25861 0.291868 2.07214
lowerneck -15.8651 -3.74259 -8.77296
upperneck 23.2693 -3.48454 3.33498
head 10.2917 -1.89833 2.19571
rclavicle -1.48095e-014 1.98785e-014
rhumerus -32.3077 -5.07631 -78.2815
rradius 37.6208
rwrist -0.498414
rhand -16.3675 9.92318
rfingers 7.12502
rthumb 9.84557 -19.8266
lclavicle -1.48095e-014 1.98785e-014
lhumerus -33.1361 9.59172 82.0465
lradius 30.763
lwrist 0.0367953
lhand -17.973 26.4181
lfingers 7.12502
lthumb 8.29639 56.2352
rfemur 6.90507 0.824845 27.9808
rtibia 14.2724
rfoot -9.7363 0.125397
rtoes -3.90014
lfemur -31.7796 1.46947 -22.5924
ltibia 23.6999
lfoot -14.6054 9.28276
ltoes -2.60049
328
root -7.44463 17.6379 7.39217 -28.8763 79.8351 -33.7382
lowerback 7.0774 0.24212 3.8719
upperback 0.482937 0.854149 3.86717
thorax -3.47923 0.427709 1.74276
lowerneck -15.6833 -3.91613 -8.39544
upperneck 23.2453 -3.86074 3.3994
head 10.2644 -2.02985 2.10562
rclavicle -1.44119e-014 4.45278e-014
rhumerus -32.2988 -4.56125 -78.2148
rradius 37.6166
rwrist -2.101
rhand -16.2033 9.72169
rfingers 7.12502
rthumb 10.004 -20.0206
lclavicle -1.44119e-014 4.45278e-014
lhumerus -33.4602 9.33726 81.6529
lradius 30.4618
lwrist -0.137423
lhand -17.7666 26.3709
lfingers 7.12502
lthumb 8.49563 56.1801
rfemur 7.28581 0.629028 27.888
rtibia 14.1512
rfoot -9.75097 -0.0208223
rtoes -3.62307
lfemur -31.6506 0.83818 -22.8872
ltibia 23.0427
lfoot -14.1148 10.2114
ltoes -3.59358
329
root -7.37257 17.6249 7.42007 -29.6478 79.9254 -34.948
lowerback 6.84903 0.493835 4.48951
upperback 0.263896 1.21286 3.52582
thorax -3.55935 0.587048 1.00933
lowerneck -15.6235 -3.98596 -7.89746
upperneck 23.3603 -4.12733 3.52463
head 10.2999 -2.09268 2.03258
rclavicle -1.15295e-014 -1.15295e-014
rhumerus -32.4512 -5.36945 -78.4145
rradius 37.5785
rwrist -2.02919
rhand -16.3976 9.53937
rfingers 7.12502
rthumb 9.81653 -20.2118
lclavicle -1.15295e-014 -1.15295e-014
lhumerus -33.8294 8.30827 81.3096
lradius 30.3197
lwrist 0.539807
lhand -16.0409 24.726
lfingers 7.12502
lthumb 10.1607 54.4607
rfemur 8.07298 0.464673 28.0711
rtibia 12.2432
rfoot -8.80105 0.182518
rtoes -3.7458
lfemur -32.6976 0.303993 -22.649
ltibia 23.9133
lfoot -14.6373 10.9269
ltoes -3.16424
330
root -7.29946 17.6123 7.47285 -36.4155 78.8416 -42.0614
lowerback 6.72075 0.620807 6.21285
upperback 0.222732 1.53739 3.81769
thorax -3.49305 0.730774 0.323195
lowerneck -15.8101 -4.02768 -7.95027
upperneck 23.5083 -4.23809 3.83413
head 10.404 -2.11052 2.13567
rclavicle 1.65985e-014 2.70347e-014
rhumerus -32.2566 -6.02029 -78.7014
rradius 37.364
rwrist -1.62442
rhand -16.7481 9.65119
rfingers 7.12502
rthumb 9.47841 -20.1157
lclavicle 1.65985e-014 2.70347e-014
lhumerus -34.1608 7.53119 81.0266
lradius 30.1967
lwrist 1.69896
lhand -15.9778 23.3189
lfingers 7.12502
lthumb 10.2215 53.0506
rfemur 9.68407 0.805708 30.1308
rtibia 9.11654
rfoot -7.23627 0.0496187
rtoes -2.86801
lfemur -33.9388 0.456714 -20.6459
ltibia 25.5415
lfoot -15.5869 10.8415
ltoes -2.60891
331
root -7.23682 17.5751 7.51931 -46.8183 75.2435 -52.693
lowerback 7.20498 0.874446 10.4362
upperback 0.253049 2.37961 4.84353
thorax -3.59534 1.11306 -1.0225
lowerneck -15.8929 -4.05524 -7.91836
upperneck 23.4707 -4.27932 3.83261
head 10.408 -2.12624 2.12253
rclavicle -6.95746e-016 -3.37934e-014
rhumerus -32.0269 -6.14509 -78.8145
rradius 37.1622
rwrist -1.75943
rhand -16.6575 9.79636
rfingers 7.12502
rthumb 9.56585 -19.9665
lclavicle -6.95746e-016 -3.37934e-014
lhumerus -34.3592 7.33891 80.8554
lradius 29.7724
lwrist 2.01654
lhand -17.4595 25.0396
lfingers 7.12502
lthumb 8.79197 54.8364
rfemur 12.672 1.93006 34.8731
rtibia 3.80284
rfoot -4.33521 -0.445498
rtoes -1.35833
lfemur -34.9587 0.493185 -15.4215
ltibia 27.4092
lfoot -16.3713 11.4102
ltoes -1.0538
332
root -7.17046 17.5385 7.55262 -51.131 73.1067 -57.284
lowerback 7.51773 0.989958 13.0488
upperback 0.181562 2.89818 5.51054
thorax -3.72798 1.34388 -1.79668
lowerneck -15.9916 -4.05852 -8.33097
upperneck 23.6139 -4.16257 3.84648
head 10.484 -2.10652 2.21304
rclavicle -5.56597e-015 4.13472e-014
rhumerus -31.857 -6.08671 -78.5623
rradius 36.9153
rwrist -1.46427
rhand -16.1808 10.0075
rfingers 7.12502
rthumb 10.0257 -19.7337
lclavicle -5.56597e-015 4.13472e-014
lhumerus -34.6285 7.46931 80.8178
lradius 29.2857
lwrist 2.01383
lhand -17.9663 26.5514
lfingers 7.12502
lthumb 8.30287 56.3682
rfemur 14.7246 2.47891 37.6899
rtibia -6.36111e-015
rfoot -2.36056 -0.930437
rtoes -1.40598
lfemur -35.8755 0.489281 -12.4282
ltibia 28.9882
lfoot -16.8584 11.3494
ltoes -0.263199
333
root -7.08442 17.5212 7.58443 -51.4338 73.36 -57.7159
lowerback 7.39034 0.886561 12.9271
upperback 0.155391 2.74657 5.68817
thorax -3.718 1.27617 -1.52681
lowerneck -16.1486 -3.90451 -9.16184
upperneck 23.8 -3.74269 4.01952
head 10.579 -1.96764 2.47449
rclavicle -3.18055e-015 1.66979e-014
rhumerus -31.5061 -5.74094 -78.2136
rradius 36.5331
rwrist -0.760844
rhand -15.5333 10.2073
rfingers 7.12502
rthumb 10.6503 -19.5028
lclavicle -3.18055e-015 1.66979e-014
lhumerus -35.0187 10.1647 79.9662
lradius 28.6196
lwrist 0.423729
lhand -17.8199 26.076
lfingers 7.12502
lthumb 8.44419 55.8872
rfemur 14.921 2.41167 37.6973
rtibia -3.18055e-015
rfoot -2.53663 -1.19936
rtoes -1.43179
lfemur -36.2504 0.222593 -12.6071
ltibia 29.8161
lfoot -16.959 11.1733
ltoes -1.69533
334
root -6.98535 17.5086 7.63524 -50.3759 74.5277 -56.48
lowerback 7.28035 0.986838 11.5973
upperback 0.157574 2.71089 5.42929
thorax -3.69476 1.27071 -1.0746
lowerneck -15.9839 -3.91457 -9.34916
upperneck 23.7513 -3.77081 4.22191
head 10.5399 -1.97326 2.57619
rclavicle -4.17448e-015 5.56597e-015
rhumerus -31.3278 -6.5929 -77.9913
rradius 35.9998
rwrist -0.00150166
rhand -15.3487 10.5874
rfingers 7.12502
rthumb 10.8284 -19.1134
lclavicle -4.17448e-015 5.56597e-015
lhumerus -35.4605 13.1722 78.5107
lradius 27.9514
lwrist -2.68944
lhand -18.0257 25.8065
lfingers 7.12502
lthumb 8.24548 55.6256
rfemur 15.4225 2.07076 36.6753
rtibia -1.27222e-014
rfoot -2.73607 -1.37636
rtoes -1.41819
lfemur -35.6871 0.0955191 -14.017
ltibia 29.4718
lfoot -16.4796 10.6196
ltoes -4.2552
335
root -6.88339 17.5094 7.69372 -47.4438 76.2579 -53.3305
lowerback 7.10945 1.43615 9.60893
upperback 0.140838 3.03997 4.73232
thorax -3.63045 1.4443 -0.746546
lowerneck -15.7208 -4.28895 -8.73066
upperneck 23.6222 -4.45135 4.079
head 10.473 -2.246 2.32598
rclavicle -2.89232e-014 -5.40694e-014
rhumerus -31.531 -8.75474 -77.7476
rradius 35.6111
rwrist 0.999599
rhand -15.1337 11.1305
rfingers 7.12502
rthumb 11.0358 -18.5594
lclavicle -2.89232e-014 -5.40694e-014
lhumerus -35.4537 13.6924 77.6401
lradius 27.2755
lwrist -4.1715
lhand -18.3216 26.0425
lfingers 7.12502
lthumb 7.95997 55.8726
rfemur 15.9284 1.67312 34.9235
rtibia -9.54166e-015
rfoot -3.01327 -1.54438
rtoes -2.3384
lfemur -34.6372 -0.0614515 -16.1128
ltibia 28.3777
lfoot -15.7902 9.3189
ltoes -3.93043
